<?xml version="1.0" encoding="UTF-8" standalone="no"?>
<svg
   version="1.0"
   width="512.000000pt"
   height="512.000000pt"
   viewBox="0 0 512.000000 512.000000"
   preserveAspectRatio="xMidYMid meet"
   id="svg6"
   sodipodi:docname="cylinder.svg"
   inkscape:version="1.1.1 (3bf5ae0d25, 2021-09-20)"
   xmlns:inkscape="http://www.inkscape.org/namespaces/inkscape"
   xmlns:sodipodi="http://sodipodi.sourceforge.net/DTD/sodipodi-0.dtd"
   xmlns="http://www.w3.org/2000/svg"
   xmlns:svg="http://www.w3.org/2000/svg">
  <defs
     id="defs10" />
  <sodipodi:namedview
     id="namedview8"
     pagecolor="#ffffff"
     bordercolor="#666666"
     borderopacity="1.0"
     inkscape:pageshadow="2"
     inkscape:pageopacity="0.0"
     inkscape:pagecheckerboard="0"
     inkscape:document-units="pt"
     showgrid="false"
     inkscape:snap-nodes="false"
     inkscape:zoom="1.2773438"
     inkscape:cx="455.24159"
     inkscape:cy="348.77064"
     inkscape:window-width="1858"
     inkscape:window-height="1177"
     inkscape:window-x="54"
     inkscape:window-y="-8"
     inkscape:window-maximized="1"
     inkscape:current-layer="g4" />
  <g
     transform="translate(0.000000,512.000000) scale(0.100000,-0.100000)"
     fill="#000000"
     stroke="none"
     id="g4">
    <path
       id="path2"
       style="fill:#000000;fill-opacity:1;stroke-width:0.817124"
       d="m 1077.0874,3630.6092 c -27.1137,-0.2258 -58.4363,-4.8772 -89.58985,-12.92 -41.53822,-10.7239 -82.78995,-27.465 -113.39354,-47.7832 -283.60795,-185.6739 -444.65047,-674.8518 -365.62499,-1109.6796 36.4561,-197.6803 150.40827,-382.1891 273.10545,-440.1422 37.7721,-17.3422 3072.61043,-970.008 3326.17653,-1043.65888 0.9344,-0.54 1.8325,-1.36349 2.7685,-1.88962 -0.141,0.53325 -0.1823,0.65175 -0.3075,1.11331 6.3171,-1.83218 81.7214,-25.79885 84.2725,-26.44047 54.0961,-14.1559 69.9713,-14.75628 132.8759,-2.44629 154.9688,28.92501 273.4113,132.76615 379.541,331.18705 98.274,184.3694 146.2604,389.0113 146.499,616.2899 -0.4064,71.1586 -4.8635,125.9721 -15.3222,182.2856 -2.3499,18.9903 -2.7223,38.4572 -6.0059,57.1729 -28.5609,160.2677 -111.45,304.1597 -208.0664,371.5581 -21.8819,18.5651 -43.5702,34.3848 -63.3545,43.8722 -41.5791,18.8661 -64.6795,26.4507 -563.9941,182.2415 -204.6494,63.7601 -578.2936,180.58 -830.9032,259.9516 -252.3491,78.5626 -628.0609,196.6433 -835.5322,261.475 -206.7042,65.0138 -558.2928,174.8727 -780.3808,244.0726 -222.3485,70.0085 -423.136,129.4578 -447.2167,132.4514 -7.9413,0.9456 -16.509,1.3644 -25.5469,1.2891 z m 12.5683,-70.6789 c 18.3032,-0.4604 35.7953,-2.6726 51.5625,-6.7675 27.9453,-7.3006 748.3112,-231.6644 1601.2791,-498.5751 l 1550.7714,-485.3034 -45.6737,-24.7706 c -218.559,-116.2724 -372.5828,-430.6709 -405.0294,-777.0861 -1.9404,-19.1508 -4.4716,-37.9981 -5.6103,-57.2755 -2.1776,-51.9721 -1.6855,-87.4975 -1.2012,-133.1252 2.4456,-61.0713 8.1887,-121.9211 19.4678,-181.6263 2.2057,-11.511 6.8858,-22.1122 9.6094,-33.4864 4.6141,-18.5718 9.7915,-35.3039 15.1904,-52.9542 6.5735,-20.8779 12.2177,-41.7021 20.332,-61.626 17.1281,-44.4661 36.0179,-85.3073 57.5977,-117.4514 17.5581,-26.3055 30.992,-47.4926 29.458,-47.8565 -13.0382,-3.0928 -3166.97104,991.672 -3194.19408,1006.979 -45.45855,25.7812 -90.26552,72.6002 -129.52146,132.9349 -39.25593,60.3346 -90.84892,220.4775 -101.63086,315.4252 -46.08384,404.3361 114.5097,835.9344 365.31733,982.4869 30.10477,18.0234 67.78901,30.4445 105.83487,36.3135 19.023,2.9345 38.1374,4.2253 56.4405,3.7647 z M 4442.4191,2510.4414 c 5.7657,0.094 10.6526,-0.2167 20.6396,-1.0548 49.0006,-16.7336 57.3199,-21.7007 64.8927,-25.2685 44.9694,-22.3653 100.617,-75.2241 144.9754,-138.8234 33.9994,-49.9434 40.9304,-64.418 73.081,-163.14 12.2714,-36.9696 21.0331,-68.543 28.3888,-98.8039 1.6056,-9.7503 4.3735,-20.9351 5.3027,-29.7216 41.2617,-388.6412 -117.3462,-823.4447 -360.791,-989.7672 -29.2246,-20.3842 -65.7121,-36.0407 -102.5097,-45.3663 -14.0818,-3.5688 -27.9705,-5.2903 -41.748,-6.9141 -36.1663,3.3027 -52.5841,5.5245 -60.7764,6.2696 -12.7414,2.5168 -12.5051,2.3403 -29.9561,6.1377 -5.7056,1.513 -21.7318,9.2207 -44.5898,18.9551 -17.3599,8.9108 -42.9595,19.2196 -43.8575,24.9024 -24.3418,20.8644 -47.8696,46.4402 -70.1513,76.3917 -2.861,5.7849 -8.5312,15.5438 -21.0498,34.5411 -24.3396,36.7268 -42.1413,92.1679 -60.4247,145.3274 -16.5941,53.0387 -30.438,107.7454 -35.4933,149.8244 -48.5793,402.9547 109.4004,838.7084 359.3555,991.9351 30,18.8242 67.5978,32.2534 105.6152,39.1408 14.5486,2.6356 28.9361,3.3863 43.1983,4.0428 13.4887,0.8006 20.1328,1.2981 25.8984,1.3917 z"
       sodipodi:nodetypes="sscccccccccccccccccccssccccccccccccscsccssscccccccsccccccccccscs" />
  </g>
</svg>
