<?xml version="1.0" encoding="UTF-8" standalone="no"?>
<svg
   version="1.0"
   width="512.000000pt"
   height="512.000000pt"
   viewBox="0 0 512.000000 512.000000"
   preserveAspectRatio="xMidYMid meet"
   id="svg6"
   sodipodi:docname="fossil.svg"
   inkscape:version="1.1.1 (3bf5ae0d25, 2021-09-20)"
   xmlns:inkscape="http://www.inkscape.org/namespaces/inkscape"
   xmlns:sodipodi="http://sodipodi.sourceforge.net/DTD/sodipodi-0.dtd"
   xmlns="http://www.w3.org/2000/svg"
   xmlns:svg="http://www.w3.org/2000/svg">
  <defs
     id="defs10" />
  <sodipodi:namedview
     id="namedview8"
     pagecolor="#ffffff"
     bordercolor="#666666"
     borderopacity="1.0"
     inkscape:pageshadow="2"
     inkscape:pageopacity="0.0"
     inkscape:pagecheckerboard="0"
     inkscape:document-units="pt"
     showgrid="false"
     inkscape:zoom="0.90321843"
     inkscape:cx="304.46677"
     inkscape:cy="367.02086"
     inkscape:window-width="1858"
     inkscape:window-height="1177"
     inkscape:window-x="54"
     inkscape:window-y="-8"
     inkscape:window-maximized="1"
     inkscape:current-layer="g4" />
  <g
     transform="translate(0.000000,512.000000) scale(0.100000,-0.100000)"
     fill="#000000"
     stroke="none"
     id="g4">
    <path
       d="m 2105,474.76899 c -303,32 -558,104 -820,234 C 611.99997,1041.7689 142.99997,1687.7689 25.999974,2443.7689 c -152.000004,988 444.999996,1911 1389.000026,2149 384,96 754,65 1094,-95 373,-175 681,-521 810,-912 13,-37 28,-67 34,-67 7,0 369,59 806,131 507,83 805,129 826,125 40,-8 81,-38 99,-75 42,-80 45,-512 6,-776 -98,-660 -417,-1261 -905,-1706 -426,-388.99991 -944,-634.99991 -1525,-723.99991 -101,-16 -467,-28 -555,-19 z m 528,320 c 230,33 487,111 707,215.99991 176,83 410,224 410,246 0,4 -191,198 -424,431 l -424,423 -58,-39 c -132,-89 -257,-146 -416,-188 l -68,-18 v -550 -549.99991 l 83,7 c 45,4 130,14 190,22 z M 2057,1844.7689 c -1,2 -36,8 -77,15 -83,12 -216,52 -271,79 l -35,19 -345,-345 -344.00003,-344 40.00003,-35 c 255,-221 644,-396.99991 975,-442.99991 l 55,-7 3,528.99991 c 1,291 1,531 -1,532 z m 2029,-304 c 389,398 627,881 710,1443 8,55 17,182 21,282 l 6,183 h -22 c -12,0 -332,-52 -711,-115 -379,-63 -691,-115 -692,-115 -2,0 -4,-55 -5,-123 -3,-253 -89,-517 -229,-708 -24,-32 -44,-62 -44,-66 0,-9 862,-873 870,-873 3,0 46,42 96,92 z m -2989,270 322,322 -57,61 c -83,88 -153,200 -206,327 l -15,38 H 724.99997 c -392,0 -416,-1 -411,-18 3,-9 8,-40 12,-67 33,-252 158,-578 306,-799 53,-80 132,-185 138,-186 3,0 150,145 327.00003,322 z m 1211,354 c 200,41 344,117 489,257 132,127 223,285 268,462 24,92 44,285 30,285 -10,0 -365,-59 -392,-65 -21,-5 -23,-11 -23,-75 0,-38 -5,-93 -11,-122 -14,-70 -78,-201 -125,-258 -193,-232 -522,-296 -749,-147 -72,47 -98,90 -93,153 10,125 123,173 245,103 51,-30 67,-34 128,-34 117,0 217,64 277,177 19,35 23,59 23,133 0,131 -27,198 -120,290 -96,97 -180,134 -307,135 -146,0 -277,-57 -389,-169 -119,-119 -169,-239 -169,-407 0,-398 337,-731 743,-733 54,-1 133,6 175,15 z m -1218,759 c 0,129 47,284 126,414 30,50 54,94 54,98 0,13 -464.00003,473 -476.00003,473 -7,0 -44,-37 -83,-82 -174,-200 -294,-424 -356,-664 -26,-103 -56,-290 -47,-299 3,-3 180,-5 394,-5 H 1090 Z m 1745,506 c 110,18 202,33 204,35 7,6 -33,109 -78,196 -67,131 -131,219 -236,323 -82,81 -200,174 -209,164 -2,-2 -32,-122 -68,-266 l -65,-262 53,-45 c 29,-25 76,-78 105,-117 42,-56 57,-69 73,-65 12,2 111,19 221,37 z m -1102,300 c 69,20 105,24 228,24 h 146 l 63,255 c 35,140 65,260 67,266 5,13 -116,47 -224,63 -276,41 -635,-34 -908,-190 l -76,-43 236,-236 237,-237 74,38 c 41,20 112,48 157,60 z"
       id="path2"
       style="fill:#000000;fill-opacity:1;stroke:#000000;stroke-width:20;stroke-miterlimit:4;stroke-dasharray:none;stroke-opacity:1" />
  </g>
</svg>
