<?xml version="1.0" encoding="UTF-8" standalone="no"?>
<svg
   version="1.0"
   width="512.000000pt"
   height="512.000000pt"
   viewBox="0 0 512.000000 512.000000"
   preserveAspectRatio="xMidYMid meet"
   id="svg6"
   sodipodi:docname="fossil_active.svg"
   inkscape:version="1.1.1 (3bf5ae0d25, 2021-09-20)"
   xmlns:inkscape="http://www.inkscape.org/namespaces/inkscape"
   xmlns:sodipodi="http://sodipodi.sourceforge.net/DTD/sodipodi-0.dtd"
   xmlns="http://www.w3.org/2000/svg"
   xmlns:svg="http://www.w3.org/2000/svg">
  <defs
     id="defs10" />
  <sodipodi:namedview
     id="namedview8"
     pagecolor="#ffffff"
     bordercolor="#666666"
     borderopacity="1.0"
     inkscape:pageshadow="2"
     inkscape:pageopacity="0.0"
     inkscape:pagecheckerboard="0"
     inkscape:document-units="pt"
     showgrid="false"
     inkscape:zoom="1.1044132"
     inkscape:cx="282.05023"
     inkscape:cy="354.48689"
     inkscape:window-width="1858"
     inkscape:window-height="1177"
     inkscape:window-x="54"
     inkscape:window-y="-8"
     inkscape:window-maximized="1"
     inkscape:current-layer="g4" />
  <g
     transform="translate(0.000000,512.000000) scale(0.100000,-0.100000)"
     fill="#000000"
     stroke="none"
     id="g4">
    <path
       d="m 2105,474.76899 c -303,32 -558,104 -820,234 C 611.99997,1041.7689 142.99997,1687.7689 25.999974,2443.7689 c -152.000004,988 444.999996,1911 1389.000026,2149 384,96 754,65 1094,-95 373,-175 681,-521 810,-912 13,-37 28,-67 34,-67 7,0 369,59 806,131 507,83 805,129 826,125 40,-8 81,-38 99,-75 42,-80 45,-512 6,-776 -98,-660 -417,-1261 -905,-1706 -426,-388.99991 -944,-634.99991 -1525,-723.99991 -101,-16 -467,-28 -555,-19 z m 528,320 c 230,33 487,111 707,215.99991 176,83 410,224 410,246 0,4 -191,198 -424,431 l -424,423 -58,-39 c -132,-89 -257,-146 -416,-188 l -68,-18 v -550 -549.99991 l 83,7 c 45,4 130,14 190,22 z M 2057,1844.7689 c -1,2 -36,8 -77,15 -83,12 -216,52 -271,79 l -35,19 -345,-345 -344.00003,-344 40.00003,-35 c 255,-221 644,-396.99991 975,-442.99991 l 55,-7 3,528.99991 c 1,291 1,531 -1,532 z m 2029,-304 c 389,398 627,881 710,1443 8,55 17,182 21,282 l 6,183 h -22 c -12,0 -332,-52 -711,-115 -379,-63 -691,-115 -692,-115 -2,0 -4,-55 -5,-123 -3,-253 -89,-517 -229,-708 -24,-32 -44,-62 -44,-66 0,-9 862,-873 870,-873 3,0 46,42 96,92 z m -2989,270 322,322 -57,61 c -83,88 -153,200 -206,327 l -15,38 H 724.99997 c -392,0 -416,-1 -411,-18 3,-9 8,-40 12,-67 33,-252 158,-578 306,-799 53,-80 132,-185 138,-186 3,0 150,145 327.00003,322 z m 1211,354 c 200,41 344,117 489,257 132,127 223,285 268,462 24,92 44,285 30,285 -10,0 -365,-59 -392,-65 -21,-5 -23,-11 -23,-75 0,-38 -5,-93 -11,-122 -14,-70 -78,-201 -125,-258 -193,-232 -522,-296 -749,-147 -72,47 -98,90 -93,153 10,125 123,173 245,103 51,-30 67,-34 128,-34 117,0 217,64 277,177 19,35 23,59 23,133 0,131 -27,198 -120,290 -96,97 -180,134 -307,135 -146,0 -277,-57 -389,-169 -119,-119 -169,-239 -169,-407 0,-398 337,-731 743,-733 54,-1 133,6 175,15 z m -1218,759 c 0,129 47,284 126,414 30,50 54,94 54,98 0,13 -464.00003,473 -476.00003,473 -7,0 -44,-37 -83,-82 -174,-200 -294,-424 -356,-664 -26,-103 -56,-290 -47,-299 3,-3 180,-5 394,-5 H 1090 Z m 1745,506 c 110,18 202,33 204,35 7,6 -33,109 -78,196 -67,131 -131,219 -236,323 -82,81 -200,174 -209,164 -2,-2 -32,-122 -68,-266 l -65,-262 53,-45 c 29,-25 76,-78 105,-117 42,-56 57,-69 73,-65 12,2 111,19 221,37 z m -1102,300 c 69,20 105,24 228,24 h 146 l 63,255 c 35,140 65,260 67,266 5,13 -116,47 -224,63 -276,41 -635,-34 -908,-190 l -76,-43 236,-236 237,-237 74,38 c 41,20 112,48 157,60 z"
       id="path2"
       style="fill:#000000;fill-opacity:1;stroke:#000000;stroke-width:0;stroke-miterlimit:4;stroke-dasharray:none;stroke-opacity:1;stroke-linejoin:miter"
       inkscape:export-filename="C:\Users\thoma\iCloudDrive\_Studium\6_Semester\Softwareentwicklungsprojekt\GitHub\web3dscan\images\fossil.png"
       inkscape:export-xdpi="300.00201"
       inkscape:export-ydpi="300.00201" />
    <path
       style="fill:#ff7f2a;fill-opacity:1;stroke:#ff7f2a;stroke-width:13.33333333;stroke-miterlimit:4;stroke-dasharray:none;stroke-opacity:1"
       d="m 43.029117,298.68798 c -0.79205,-1.28053 3.684734,-27.02625 6.743093,-38.77912 8.296745,-31.8833 27.272343,-65.76313 50.96462,-90.99437 l 5.12879,-5.46194 30.38037,30.36531 c 16.7092,16.70091 30.38037,30.71128 30.38037,31.13414 0,0.42286 -2.97157,6.1124 -6.60348,12.64343 -10.81845,19.45405 -16.64671,39.08525 -16.64671,56.07072 v 6.62377 L 93.449009,299.88725 C 65.98907,299.66579 43.300118,299.12612 43.029117,298.68798 Z"
       id="path859"
       transform="matrix(7.5,0,0,-7.5,0,5120)" />
    <path
       style="fill:#ff7f2a;fill-opacity:1;stroke:#ff7f2a;stroke-width:13.33333333;stroke-miterlimit:4;stroke-dasharray:none;stroke-opacity:1"
       d="m 170.77049,166.34202 c -16.28474,-16.29312 -29.60862,-29.95378 -29.60862,-30.35701 0,-1.31446 17.99526,-10.58135 30.45395,-15.68266 39.20091,-16.05113 83.25333,-19.63196 117.13286,-9.52121 6.06138,1.80891 7.42101,2.61643 6.96318,4.1356 -0.31291,1.03828 -4.12513,16.15961 -8.4716,33.60295 l -7.90266,31.71516 -21.20355,0.49125 c -20.13085,0.4664 -21.7163,0.66488 -31.33889,3.92329 -5.57444,1.88761 -13.65806,5.20603 -17.96358,7.37426 -4.30553,2.16823 -7.96868,3.94224 -8.14035,3.94224 -0.17166,0 -13.636,-13.33074 -29.92074,-29.62387 z"
       id="path898"
       transform="matrix(7.5,0,0,-7.5,0,5120)" />
    <path
       style="fill:#ff7f2a;fill-opacity:1;stroke:#ff7f2a;stroke-width:13.33333333;stroke-opacity:1;stroke-miterlimit:4;stroke-dasharray:none;stroke-linejoin:miter;stroke-linecap:butt"
       d="m 338.9675,218.68608 c -4.10485,-5.16296 -9.93445,-11.51525 -12.95466,-14.11619 -3.0202,-2.60093 -5.50097,-5.22719 -5.51282,-5.83612 -0.0618,-3.17657 16.12404,-65.87554 17.00587,-65.87554 1.96866,0 16.81082,12.63221 26.88324,22.88042 5.55529,5.65224 13.18363,14.77825 16.95186,20.28001 6.61945,9.66466 19.13937,34.01911 20.59085,40.05446 0.67736,2.81655 0.44826,2.99852 -5.19932,4.12971 -9.874,1.97773 -45.96459,7.87046 -48.20339,7.87046 -1.30775,0 -4.91003,-3.53657 -9.56163,-9.38721 z"
       id="path937"
       transform="matrix(7.5,0,0,-7.5,0,5120)" />
    <path
       style="fill:#ff7f2a;fill-opacity:1;stroke:#ff7f2a;stroke-width:13.33333333;stroke-miterlimit:4;stroke-dasharray:none;stroke-opacity:1"
       d="m 279.81464,394.39518 c -46.36476,-2.31066 -85.75559,-38.08631 -92.1587,-83.70062 -1.0442,-7.4387 -1.04446,-17.93477 -6.1e-4,-25.19448 2.19688,-15.27879 8.74118,-27.7389 21.0667,-40.11023 12.92294,-12.97097 27.63356,-20.37759 43.78341,-22.04442 4.61666,-0.47649 14.06742,-0.19258 17.93464,0.53878 11.1824,2.11478 18.67174,6.40438 28.7976,16.49414 6.55496,6.53159 9.05434,9.73715 11.66318,14.95856 3.06618,6.13672 4.22225,12.56957 4.22225,23.49437 0,10.74814 -0.76301,13.62179 -5.49191,20.68365 -4.51715,6.74566 -9.7744,11.48977 -16.16513,14.58732 -5.34936,2.59281 -9.50361,3.59821 -15.84773,3.83543 -7.59261,0.2839 -10.16124,-0.30797 -16.42546,-3.78485 -6.53278,-3.62594 -10.29911,-4.76093 -15.95873,-4.80921 -4.39937,-0.0375 -6.54298,0.4474 -9.78661,2.21393 -6.07478,3.30842 -9.57796,9.60364 -9.91661,17.82014 -0.17717,4.29865 0.27369,6.67733 1.88866,9.96437 0.98257,1.99988 1.61635,2.81219 4.22626,5.41678 8.18188,8.16518 20.89436,13.88663 35.45455,15.95688 3.31971,0.47201 15.22763,0.45754 18.68318,-0.0227 15.07929,-2.0957 28.59788,-7.72068 40.67847,-16.92601 4.07193,-3.10278 10.7986,-9.54769 13.67938,-13.10639 7.04874,-8.70747 15.08375,-25.30283 17.19145,-35.50688 0.72632,-3.5163 1.24503,-9.14836 1.39832,-15.18269 0.17858,-7.02945 0.32207,-8.60016 0.83229,-9.11037 0.21517,-0.21517 1.04694,-0.53315 1.84838,-0.70663 3.1312,-0.67778 49.11678,-8.31263 50.06783,-8.31263 0.4322,0 0.15803,8.12901 -0.44808,13.28583 -1.66615,14.17566 -3.437,22.67963 -6.7464,32.39745 -2.34375,6.88227 -3.68206,10.09297 -6.76606,16.23227 -6.71971,13.37691 -14.05958,23.38373 -25.14279,34.27845 -16.99535,16.70632 -33.31348,26.22156 -55.31574,32.25508 -5.34056,1.4645 -12.56607,2.90615 -17.16086,3.42397 -3.42868,0.3864 -13.78262,1.03235 -15.08494,0.9411 -0.30447,-0.0213 -2.55455,-0.1385 -5.00019,-0.26039 z"
       id="path976"
       transform="matrix(7.5,0,0,-7.5,0,5120)" />
    <path
       style="fill:#ff7f2a;fill-opacity:1;stroke:#ff7f2a;stroke-width:13.33333333;stroke-miterlimit:4;stroke-dasharray:none;stroke-opacity:1"
       d="M 98.496834,476.18349 C 85.796122,459.30014 77.667811,446.13557 69.615062,429.40673 57.707085,404.66901 49.913797,380.81281 45.822305,356.57422 43.430922,342.40731 41.976065,344.014 57.737003,343.41614 c 7.427523,-0.28175 31.386339,-0.51335 53.241817,-0.51466 l 39.73722,-0.002 1.32626,3.32722 c 6.81246,17.09058 20.852,38.61505 32.28055,49.49033 l 2.44027,2.32214 -41.70909,41.71456 c -22.94,22.94301 -41.90548,41.71456 -42.14552,41.71456 -0.24003,0 -2.22528,-2.37798 -4.411676,-5.2844 z"
       id="path1054"
       transform="matrix(7.5,0,0,-7.5,0,5120)" />
    <path
       style="fill:#ff7f2a;fill-opacity:1;stroke:#ff7f2a;stroke-width:13.33333333;stroke-miterlimit:4;stroke-dasharray:none;stroke-opacity:1;stroke-linejoin:miter;stroke-linecap:butt;paint-order:normal"
       d="m 265.00306,575.27405 c -43.42924,-7.42 -89.11736,-27.68553 -121.25563,-53.78444 -4.04106,-3.28167 -7.90731,-6.41564 -8.59167,-6.96437 -1.08132,-0.86703 4.61158,-6.85357 43.46814,-45.71013 l 44.71243,-44.71242 6.57188,2.82268 c 8.04909,3.45715 23.23236,7.67692 34.50769,9.59045 l 8.4159,1.42825 v 49.03553 c 0,26.96954 -0.23263,58.07616 -0.51695,69.12582 -0.45492,17.67951 -0.6663,20.07913 -1.76147,19.99729 -0.68448,-0.0511 -3.18213,-0.42404 -5.55032,-0.82866 z"
       id="path1093"
       transform="matrix(7.5,0,0,-7.5,0,5120)" />
    <path
       style="fill:#ff7f2a;fill-opacity:1;stroke:#ff7f2a;stroke-width:13.33333333;stroke-miterlimit:4;stroke-dasharray:none;stroke-opacity:1"
       d="m 316.86439,506.918 0.19983,-71.82946 9.66026,-2.64061 c 18.69881,-5.11126 35.97568,-13.00977 53.04446,-24.25043 l 6.73147,-4.43302 5.59995,5.35976 c 10.73457,10.27417 105.40839,105.61994 105.4124,106.16059 0.006,0.85477 -14.21608,10.05609 -25.71387,16.63578 -47.83418,27.37347 -91.63428,40.94261 -149.45438,46.30052 l -5.67996,0.52634 z"
       id="path1132"
       transform="matrix(7.5,0,0,-7.5,0,5120)" />
    <path
       style="fill:#ff7f2a;fill-opacity:1;stroke:#ff7f2a;stroke-width:13.33333333;stroke-opacity:1;stroke-miterlimit:4;stroke-dasharray:none;stroke-linejoin:miter"
       d="m 474.67668,429.99388 -56.81471,-56.95413 4.19928,-5.87156 c 15.42572,-21.56869 24.9171,-44.44246 29.72384,-71.63302 0.97904,-5.5382 2.35122,-22.65251 2.88091,-35.93175 l 0.18415,-4.61676 34.44648,-5.73474 c 55.1896,-9.18811 143.6975,-23.67317 148.02526,-24.22558 l 3.97633,-0.50755 -0.27605,8.89045 c -1.21771,39.21655 -3.3893,57.65964 -9.98829,84.82929 -12.51619,51.53226 -35.16991,96.49789 -69.21946,137.3945 -7.23169,8.68592 -28.77721,31.31498 -29.81553,31.31498 -0.27913,0 -26.07412,-25.62936 -57.32221,-56.95413 z"
       id="path1171"
       transform="matrix(7.5,0,0,-7.5,0,5120)" />
  </g>
</svg>
