<?xml version="1.0" encoding="UTF-8" standalone="no"?>
<svg
   version="1.0"
   width="512.000000pt"
   height="512.000000pt"
   viewBox="0 0 512.000000 512.000000"
   preserveAspectRatio="xMidYMid meet"
   id="svg6"
   sodipodi:docname="stein.svg"
   inkscape:version="1.1.1 (3bf5ae0d25, 2021-09-20)"
   xmlns:inkscape="http://www.inkscape.org/namespaces/inkscape"
   xmlns:sodipodi="http://sodipodi.sourceforge.net/DTD/sodipodi-0.dtd"
   xmlns="http://www.w3.org/2000/svg"
   xmlns:svg="http://www.w3.org/2000/svg">
  <defs
     id="defs10" />
  <sodipodi:namedview
     id="namedview8"
     pagecolor="#ffffff"
     bordercolor="#666666"
     borderopacity="1.0"
     inkscape:pageshadow="2"
     inkscape:pageopacity="0.0"
     inkscape:pagecheckerboard="0"
     inkscape:document-units="pt"
     showgrid="false"
     inkscape:zoom="0.63867188"
     inkscape:cx="298.27523"
     inkscape:cy="256"
     inkscape:window-width="1842"
     inkscape:window-height="1057"
     inkscape:window-x="1990"
     inkscape:window-y="-8"
     inkscape:window-maximized="1"
     inkscape:current-layer="g4" />
  <g
     transform="translate(0.000000,512.000000) scale(0.100000,-0.100000)"
     fill="#000000"
     stroke="none"
     id="g4">
    <path
       d="m 2132.1376,3839.2202 c -142,-96 -122.2678,-82.6471 -140.2678,-96.6471 -111.3579,-112.8988 -158.2293,-210.5586 -223.3536,-316.2452 -65.1243,-105.6865 -136.046,-209.0204 -270.5933,-312.5084 C 1208.0921,2890.8942 1097.1793,2809.2258 909.47706,2682.8899 823.47706,2624.8899 656,2541 651,2531 c -6,-10 -45,-220 -87,-467 l -77,-449 72,-200 c 40,-110 80,-209 91,-219 16,-16 94,-28 567,-82 l 548,-64 555,50 c 305,27 699,61 875,75 l 320,25 70,37 c 39,21 282,148 540,284 299,157 477,257 489,273 19,25 -20.633,32.8716 -117.633,708.8716 -53,373 -134.2936,662.5779 -139.2936,676.5779 -6,16 -85.3486,104.5138 -315.3486,277.5138 l -539.7431,224.156 -534.2845,147.4679 c -326,80 -481.1009,122.5137 -490.1009,122.5137 -10,-1 -203.4587,-15.8807 -345.4587,-111.8807 z M 2873.1193,3727.0092 3301.6972,3617.945 3172,3557 l -253,-127 -396,113 -397,114 189,127 c 105,69 101.055,62.8807 101.055,62.8807 0,0 207.0643,-56.8715 457.0643,-119.8715 z m 1342.633,-598.7523 c 15,-14 78.0367,-104.5138 152.0367,-615.5138 C 4417.789,2169.7431 4470,1877 4468,1875 c -12,-11 -922,-484 -925,-481 -5,5 -523,1909 -520,1912 1,1 141,71 312,157 l 173.9541,92.3486 429.3028,-190.3669 c 168,-126 267.4954,-227.7248 277.4954,-236.7248 z M 3127,2319 c 144,-530 263,-967 263,-970 0,-6 -560,-53 -564,-47 -2,2 -49,176 -106,388 l -104,385 -183,404 c -100,222 -190,409 -198,415 -9,6 -121,67 -250,136 -223,118 -234,125 -221,145 7,11 59,97 115,191 l 102,171 442,-127 442,-127 z m -1452,409 68,-238 -58,-177 -58,-178 28,-440 c 15,-242 25,-449 24,-460 -4,-20 -10,-20 -463,32 -253,30 -461,54 -461,56 -1,1 -27,71 -57,155 l -54,152 71,410 70,410 345,233 c 190,127 372,251 405,273 51,35 61,39 66,25 4,-9 37,-123 74,-253 z m 623,-327 170,-376 96,-356 c 53,-196 96,-363 96,-371 0,-11 -74,-21 -407,-51 -223,-20 -408,-36 -409,-34 -1,1 -15,206 -31,455 l -27,452 57,173 c 31,95 57,183 57,195 0,18 -64,253 -126,463 -3,11 57,-16 174,-78 l 179,-96 z"
       id="path2"
       sodipodi:nodetypes="scssccccccccccccccccccccsccccccccccccsscccccscccccccccccccccccccccccccccccccscccccscccc" />
  </g>
</svg>
