<?xml version="1.0" encoding="UTF-8" standalone="no"?>
<svg
   version="1.0"
   width="512.000000pt"
   height="512.000000pt"
   viewBox="0 0 512.000000 512.000000"
   preserveAspectRatio="xMidYMid meet"
   id="svg6"
   sodipodi:docname="stone_active.svg"
   inkscape:version="1.1.1 (3bf5ae0d25, 2021-09-20)"
   xmlns:inkscape="http://www.inkscape.org/namespaces/inkscape"
   xmlns:sodipodi="http://sodipodi.sourceforge.net/DTD/sodipodi-0.dtd"
   xmlns="http://www.w3.org/2000/svg"
   xmlns:svg="http://www.w3.org/2000/svg">
  <defs
     id="defs10" />
  <sodipodi:namedview
     id="namedview8"
     pagecolor="#ffffff"
     bordercolor="#666666"
     borderopacity="1.0"
     inkscape:pageshadow="2"
     inkscape:pageopacity="0.0"
     inkscape:pagecheckerboard="0"
     inkscape:document-units="pt"
     showgrid="false"
     inkscape:zoom="0.63867188"
     inkscape:cx="299.84098"
     inkscape:cy="256"
     inkscape:window-width="1858"
     inkscape:window-height="1177"
     inkscape:window-x="54"
     inkscape:window-y="-8"
     inkscape:window-maximized="1"
     inkscape:current-layer="g4" />
  <g
     transform="translate(0.000000,512.000000) scale(0.100000,-0.100000)"
     fill="#000000"
     stroke="none"
     id="g4">
    <path
       d="m 2132.1376,3839.2202 c -142,-96 -122.2678,-82.6471 -140.2678,-96.6471 -111.3579,-112.8988 -158.2293,-210.5586 -223.3536,-316.2452 -65.1243,-105.6865 -136.046,-209.0204 -270.5933,-312.5084 C 1208.0921,2890.8942 1097.1793,2809.2258 909.47706,2682.8899 823.47706,2624.8899 656,2541 651,2531 c -6,-10 -45,-220 -87,-467 l -77,-449 72,-200 c 40,-110 80,-209 91,-219 16,-16 94,-28 567,-82 l 548,-64 555,50 c 305,27 699,61 875,75 l 320,25 70,37 c 39,21 282,148 540,284 299,157 477,257 489,273 19,25 -20.633,32.8716 -117.633,708.8716 -53,373 -134.2936,662.5779 -139.2936,676.5779 -6,16 -85.3486,104.5138 -315.3486,277.5138 l -539.7431,224.156 -534.2845,147.4679 c -326,80 -481.1009,122.5137 -490.1009,122.5137 -10,-1 -203.4587,-15.8807 -345.4587,-111.8807 z M 2873.1193,3727.0092 3301.6972,3617.945 3172,3557 l -253,-127 -396,113 -397,114 189,127 c 105,69 101.055,62.8807 101.055,62.8807 0,0 207.0643,-56.8715 457.0643,-119.8715 z m 1342.633,-598.7523 c 15,-14 78.0367,-104.5138 152.0367,-615.5138 C 4417.789,2169.7431 4470,1877 4468,1875 c -12,-11 -922,-484 -925,-481 -5,5 -523,1909 -520,1912 1,1 141,71 312,157 l 173.9541,92.3486 429.3028,-190.3669 c 168,-126 267.4954,-227.7248 277.4954,-236.7248 z M 3127,2319 c 144,-530 263,-967 263,-970 0,-6 -560,-53 -564,-47 -2,2 -49,176 -106,388 l -104,385 -183,404 c -100,222 -190,409 -198,415 -9,6 -121,67 -250,136 -223,118 -234,125 -221,145 7,11 59,97 115,191 l 102,171 442,-127 442,-127 z m -1452,409 68,-238 -58,-177 -58,-178 28,-440 c 15,-242 25,-449 24,-460 -4,-20 -10,-20 -463,32 -253,30 -461,54 -461,56 -1,1 -27,71 -57,155 l -54,152 71,410 70,410 345,233 c 190,127 372,251 405,273 51,35 61,39 66,25 4,-9 37,-123 74,-253 z m 623,-327 170,-376 96,-356 c 53,-196 96,-363 96,-371 0,-11 -74,-21 -407,-51 -223,-20 -408,-36 -409,-34 -1,1 -15,206 -31,455 l -27,452 57,173 c 31,95 57,183 57,195 0,18 -64,253 -126,463 -3,11 57,-16 174,-78 l 179,-96 z"
       id="path2"
       sodipodi:nodetypes="scssccccccccccccccccccccsccccccccccccsscccccscccccccccccccccccccccccccccccccscccccscccc"
       style="stroke:#000000;stroke-opacity:1;stroke-width:20.00000003;stroke-miterlimit:4;stroke-dasharray:none" />
    <path
       style="fill:#ff7f2a;fill-opacity:1;stroke:none;stroke-width:0;stroke-miterlimit:4;stroke-dasharray:none"
       d="M 465.19991,467.76758 C 448.43075,407.2023 406.2942,251.22013 405.48904,246.72835 l -0.864,-4.8201 31.78966,-16.05199 31.78967,-16.052 28.16081,12.4839 c 29.60199,13.12279 36.9389,17.8625 56.75035,36.66128 10.70507,10.15787 11.58892,11.5244 15.19269,23.4898 4.5855,15.22495 8.82853,36.29148 13.28101,65.93996 1.81056,12.05627 5.44603,35.17957 8.0788,51.3851 2.63278,16.20554 4.43333,30.3859 4.00124,31.51191 -0.8833,2.30186 -117.00231,63.50054 -120.48655,63.50054 -0.27752,0 -3.86978,-12.15412 -7.98281,-27.00917 z"
       id="path859"
       transform="matrix(7.5,0,0,-7.5,0,5120)" />
    <path
       style="fill:#ff7f2a;fill-opacity:1;stroke:none;stroke-width:0;stroke-miterlimit:4;stroke-dasharray:none"
       d="m 335.35803,209.176 -49.81627,-14.4017 18.14115,-12.08217 18.14116,-12.08217 35.58949,9.32864 c 19.57422,5.13076 44.39683,11.50952 55.16136,14.17505 10.76453,2.66552 20.62875,5.21988 21.92049,5.67636 2.73955,0.9681 -42.46383,24.19736 -46.60576,23.94991 -1.49344,-0.0892 -25.13267,-6.64299 -52.53162,-14.56392 z"
       id="path898"
       transform="matrix(7.5,0,0,-7.5,0,5120)" />
    <path
       style="fill:#ff7f2a;fill-opacity:1;stroke:none;stroke-width:0;stroke-miterlimit:4;stroke-dasharray:none"
       d="m 377.51791,507.57887 c -0.35904,-0.58244 -6.73186,-23.60579 -14.16182,-51.16297 -12.95425,-48.04635 -14.16127,-51.55074 -29.39136,-85.33333 -26.99397,-59.87664 -33.59521,-73.17171 -37.65022,-75.82866 -2.09244,-1.37102 -15.0943,-8.65026 -28.89301,-16.17609 -13.79872,-7.52583 -26.59146,-14.74021 -28.42831,-16.03195 -3.30896,-2.32698 -3.20618,-2.5725 11.15396,-26.64326 l 14.4937,-24.29463 57.71472,16.60512 c 33.35,9.59513 58.22584,17.53783 58.92545,18.81451 2.01153,3.67074 69.41553,253.49041 68.61137,254.29458 -0.63901,0.639 -12.24519,1.75686 -63.52263,6.1183 -4.50947,0.38357 -8.49281,0.22084 -8.85185,-0.36162 z"
       id="path937"
       transform="matrix(7.5,0,0,-7.5,0,5120)" />
    <path
       style="fill:#ff7f2a;fill-opacity:1;stroke:none;stroke-width:0;stroke-miterlimit:4;stroke-dasharray:none"
       d="m 245.94524,509.25993 c -0.53794,-5.81284 -2.3603,-32.62097 -4.04969,-59.57361 l -3.07161,-49.0048 7.82222,-24.24484 c 5.32077,-16.49164 7.51574,-25.60552 6.86383,-28.49978 -0.52711,-2.34022 -4.11316,-15.76648 -7.969,-29.83614 -3.85584,-14.06965 -6.60028,-25.99152 -6.09876,-26.49305 0.94474,-0.94473 33.04715,15.13064 40.16884,20.11466 2.95336,2.06687 10.04512,16.09291 26.3803,52.17483 22.32751,49.31804 22.34809,49.37425 33.85992,92.46593 6.33536,23.71486 11.96265,45.48366 12.5051,48.37514 l 0.98626,5.25724 -7.69886,1.02127 c -10.17159,1.34932 -90.85958,8.81196 -95.27707,8.81196 -3.11067,0 -3.53791,-1.02123 -4.42148,-10.56881 z"
       id="path976"
       transform="matrix(7.5,0,0,-7.5,0,5120)" />
    <path
       style="fill:#ff7f2a;fill-opacity:1;stroke:none;stroke-width:0;stroke-miterlimit:4;stroke-dasharray:none"
       d="m 160.4893,512.82546 c -23.68196,-2.81627 -46.68114,-5.61893 -51.10928,-6.22814 l -8.05117,-1.10768 -7.286132,-20.00188 -7.286129,-20.00188 9.340851,-54.50684 c 6.04041,-35.24772 10.07652,-54.93836 11.42293,-55.72814 1.14514,-0.67173 24.98116,-16.71407 52.96893,-35.64966 27.98776,-18.93559 51.34013,-33.94637 51.89415,-33.3573 0.55402,0.58907 5.06136,15.35623 10.0163,32.81591 l 9.009,31.74487 -7.55675,23.40424 -7.55674,23.40424 3.4459,58.36772 c 1.89525,32.10223 3.43065,59.24843 3.412,60.32489 -0.0526,3.0371 -14.69901,2.22363 -62.66386,-3.48035 z"
       id="path1015"
       transform="matrix(7.5,0,0,-7.5,0,5120)" />
  </g>
</svg>
